<?xml version="1.0" encoding="UTF-8"?>
<svg version="1.1" xmlns="http://www.w3.org/2000/svg" width="64" height="64">
<path d="M0 0 C0.70745361 0.00241699 1.41490723 0.00483398 2.14379883 0.00732422 C5.85673017 0.06296469 9.24847756 0.32555554 12.8125 1.375 C16.6977761 2.40129935 17.56519283 1.81284217 21.125 0.25 C24.140177 -0.03464958 27.11942217 -0.15153103 30.125 0.25 C32.44050171 2.56550171 32.46678912 3.09717115 32.5625 6.25 C32.45309727 11.86600685 30.34097069 16.68422753 27.125 21.25 C26.135 21.58 25.145 21.91 24.125 22.25 C23.7846875 21.65832031 23.444375 21.06664063 23.09375 20.45703125 C18.95967098 13.71716306 14.67013479 9.76504493 7.125 7.25 C-1.82439058 6.43536107 -9.5394353 6.64045052 -16.875 12.25 C-23.76748646 19.37223601 -25.34462514 26.03172411 -25.19140625 35.796875 C-24.52667758 43.05144467 -21.18965784 47.52585969 -15.875 52.25 C-11.93826356 50.93775452 -9.64780706 49.33089673 -6.875 46.25 C-5.555 46.91 -4.235 47.57 -2.875 48.25 C-2.875 52.25 -2.875 52.25 -4.2734375 53.99609375 C-11.42071611 60.11224323 -18.36889218 64.91536399 -28.0625 64.62109375 C-29.875 64.25 -29.875 64.25 -31.875 62.25 C-32.48877733 57.81816666 -32.05006681 53.82383009 -30.75 49.5625 C-29.5695157 46.32766234 -29.5695157 46.32766234 -30.796875 43.52734375 C-33.57264102 35.08941732 -32.97297239 24.36194595 -29.1328125 16.359375 C-22.61800344 5.4339188 -12.76209062 -0.16607476 0 0 Z M22.125 6.25 C22.785 7.57 23.445 8.89 24.125 10.25 C24.785 10.25 25.445 10.25 26.125 10.25 C26.125 8.93 26.125 7.61 26.125 6.25 C24.805 6.25 23.485 6.25 22.125 6.25 Z M-25.875 54.25 C-25.875 55.57 -25.875 56.89 -25.875 58.25 C-24.555 58.25 -23.235 58.25 -21.875 58.25 C-22.535 56.93 -23.195 55.61 -23.875 54.25 C-24.535 54.25 -25.195 54.25 -25.875 54.25 Z " fill="#fff" transform="translate(31.875,-0.25)"/>
<path d="M0 0 C2.46580997 2.46580997 2.30586713 3.98083539 2.38037109 7.35766602 C2.35476542 17.57083663 0.93209948 25.72863591 -6.296875 33.46875 C-13.38471375 39.84130227 -20.83118349 42.35350348 -30.25 42.25 C-31.32894531 42.26160156 -31.32894531 42.26160156 -32.4296875 42.2734375 C-37.74647556 42.25352444 -37.74647556 42.25352444 -40 40 C-37.64778849 37.39576583 -35.78484239 36.1002166 -32.27734375 35.65234375 C-31.25769531 35.60207031 -30.23804688 35.55179688 -29.1875 35.5 C-22.06010101 35.11473519 -17.62248953 33.26487732 -12.25 28.625 C-7.335924 22.89191133 -5.01532921 18.63697224 -4.6875 11.125 C-4.33325124 6.24817535 -3.77300757 3.4078778 0 0 Z " fill="#fff" transform="translate(62,22)"/>
<path d="M0 0 C-0.52909028 5.39672087 -1.29993678 9.71124862 -5.58984375 13.34765625 C-7.46668544 15.5468364 -7.31123376 16.84162358 -7.1875 19.6875 C-7.125625 21.110625 -7.06375 22.53375 -7 24 C-11.29 24 -15.58 24 -20 24 C-19.34 22.68 -18.68 21.36 -18 20 C-18 19.01 -18 18.02 -18 17 C-19.98 18.32 -21.96 19.64 -24 21 C-24 16.71 -24 12.42 -24 8 C-21.6796875 7.9071875 -21.6796875 7.9071875 -19.3125 7.8125 C-14.18096001 7.3224091 -12.46853076 5.84350706 -9 2 C-5.91595462 0.90228893 -3.28184281 0 0 0 Z " fill="#fff" transform="translate(53,23)"/>
</svg>
